<svg version="1.2" baseProfile="tiny-ps" xmlns="http://www.w3.org/2000/svg" viewBox="0 0 1538 328" width="1538" height="328">
	<title>Microsoft_logo_(2012)-svg</title>
	<style>
		tspan { white-space:pre }
		.shp0 { fill: #737373 } 
		.shp1 { fill: #f25022 } 
		.shp2 { fill: #7fba00 } 
		.shp3 { fill: #00a4ef } 
		.shp4 { fill: #ffb900 } 
	</style>
	<path id="Layer" fill-rule="evenodd" class="shp0" d="M638.86 262.4L604.73 262.4L604.73 107.97L604.28 107.97L543.31 262.4L520.55 262.4L458.21 107.97L457.76 107.97L457.76 262.4L426.36 262.4L426.36 65.6L475.51 65.6L531.93 211.38L532.84 211.38L592.45 65.6L638.86 65.6L638.86 262.4ZM667.07 80.63C667.07 75.17 668.89 70.61 672.99 66.97C677.08 63.32 681.63 61.5 687.09 61.5C693.01 61.5 698.02 63.32 701.66 66.97C705.3 70.61 707.57 75.17 707.57 80.63C707.57 86.1 705.75 90.66 701.66 94.3C697.56 97.94 693.01 99.77 687.09 99.77C681.18 99.77 676.63 97.94 672.99 94.3C669.35 90.2 667.07 85.64 667.07 80.63ZM703.93 121.18L703.93 262.4L670.71 262.4L670.71 121.18L703.93 121.18ZM804.49 238.26C809.5 238.26 814.96 237.34 820.87 234.61C826.79 232.33 832.25 229.14 837.25 225.5L837.25 256.48C831.79 259.67 825.88 261.94 819.05 263.31C812.23 264.68 804.95 265.59 796.76 265.59C775.83 265.59 758.99 259.21 746.25 246C733.05 232.79 726.68 215.93 726.68 195.89C726.68 173.11 733.51 154.43 746.7 139.86C759.9 125.28 778.56 117.99 803.13 117.99C809.5 117.99 815.87 118.9 821.78 120.27C828.15 121.63 833.16 123.91 836.8 125.73L836.8 157.62C831.79 153.98 826.33 150.79 821.33 148.97C815.87 147.14 810.41 145.78 804.95 145.78C791.75 145.78 781.29 149.88 773.1 158.53C764.9 167.19 761.26 178.58 761.26 193.16C761.26 207.28 765.36 218.67 773.1 226.41C780.83 234.16 791.3 238.26 804.49 238.26ZM931.45 118.9C934.18 118.9 936.45 118.9 938.73 119.36C941 119.81 942.82 120.27 944.19 120.72L944.19 154.43C942.37 153.07 940.09 151.7 936.45 150.79C932.81 149.88 929.17 148.97 924.17 148.97C915.97 148.97 909.15 152.61 903.69 159.44C898.23 166.28 895.04 176.76 895.04 191.33L895.04 262.4L861.83 262.4L861.83 121.18L895.04 121.18L895.04 143.5L895.5 143.5C898.68 135.76 903.23 129.83 909.15 125.28C915.52 121.18 922.8 118.9 931.45 118.9ZM946.01 194.07C946.01 170.83 952.83 152.16 965.57 138.49C978.77 124.82 996.97 117.99 1020.18 117.99C1042.02 117.99 1059.31 124.37 1071.59 137.58C1083.88 150.79 1090.25 168.56 1090.25 190.88C1090.25 213.66 1083.43 231.88 1070.68 245.54C1057.49 259.21 1039.74 266.04 1016.99 266.04C995.15 266.04 977.86 259.67 965.12 246.91C952.38 233.7 946.01 215.93 946.01 194.07ZM980.59 192.7C980.59 207.28 983.77 218.67 990.6 226.41C997.42 234.16 1006.98 238.26 1019.27 238.26C1031.1 238.26 1040.65 234.61 1047.02 226.41C1053.39 218.67 1056.58 207.28 1056.58 191.79C1056.58 176.76 1053.39 165.37 1047.02 157.17C1040.65 149.42 1031.1 145.32 1019.72 145.32C1007.44 145.32 998.33 149.42 991.51 157.62C983.77 166.28 980.59 177.67 980.59 192.7ZM1139.85 158.53C1139.85 163.09 1141.21 167.19 1144.4 169.92C1147.58 172.66 1153.96 175.84 1164.42 179.94C1177.62 185.41 1187.17 191.33 1192.18 197.71C1197.64 204.54 1200.37 212.29 1200.37 221.86C1200.37 235.07 1195.36 245.54 1184.9 253.74C1174.89 261.94 1160.78 265.59 1143.49 265.59C1137.57 265.59 1131.2 264.68 1123.92 263.31C1116.64 261.94 1110.73 260.12 1105.72 257.84L1105.72 225.04C1111.64 229.14 1118.46 232.79 1125.29 235.07C1132.11 237.34 1138.48 238.71 1144.4 238.71C1151.68 238.71 1157.6 237.8 1160.78 235.52C1164.42 233.24 1166.24 230.06 1166.24 225.04C1166.24 220.49 1164.42 216.84 1160.78 213.2C1157.14 210.01 1149.86 206.37 1139.85 202.27C1127.56 197.26 1118.92 191.33 1113.91 184.96C1108.91 178.58 1106.18 170.38 1106.18 160.36C1106.18 147.6 1111.18 137.12 1121.19 128.92C1131.2 120.72 1144.4 116.62 1160.33 116.62C1165.33 116.62 1170.79 117.08 1176.71 118.44C1182.62 119.81 1188.08 121.18 1192.18 122.54L1192.18 154.89C1187.63 152.16 1182.62 149.42 1176.71 147.14C1170.79 144.87 1164.88 143.96 1159.42 143.96C1153.04 143.96 1148.04 145.32 1144.85 147.6C1141.67 150.79 1139.85 153.98 1139.85 158.53ZM1214.47 194.07C1214.47 170.83 1221.3 152.16 1234.04 138.49C1247.24 124.82 1265.44 117.99 1288.64 117.99C1310.49 117.99 1327.78 124.37 1340.06 137.58C1352.35 150.79 1358.72 168.56 1358.72 190.88C1358.72 213.66 1351.89 231.88 1339.15 245.54C1325.96 259.21 1308.21 266.04 1285.46 266.04C1263.62 266.04 1246.33 259.67 1233.59 246.91C1221.3 233.7 1214.47 215.93 1214.47 194.07ZM1249.06 192.7C1249.06 207.28 1252.24 218.67 1259.07 226.41C1265.89 234.16 1275.45 238.26 1287.73 238.26C1299.56 238.26 1309.12 234.61 1315.49 226.41C1321.86 218.67 1325.05 207.28 1325.05 191.79C1325.05 176.76 1321.86 165.37 1315.49 157.17C1309.12 149.42 1299.56 145.32 1288.19 145.32C1275.9 145.32 1266.8 149.42 1259.98 157.62C1252.7 166.28 1249.06 177.67 1249.06 192.7ZM1419.69 148.51L1419.69 262.4L1386.02 262.4L1386.02 148.51L1362.36 148.51L1362.36 121.18L1386.02 121.18L1386.02 101.59C1386.02 87.01 1391.03 74.71 1400.58 65.14C1410.14 55.58 1422.42 51.02 1437.44 51.02C1441.53 51.02 1445.17 51.48 1448.36 51.48C1451.54 51.48 1454.27 52.39 1456.55 53.3L1456.55 82C1455.64 81.54 1453.36 80.63 1450.63 79.72C1447.9 78.81 1444.72 78.36 1441.08 78.36C1434.25 78.36 1428.79 80.63 1425.15 84.73C1421.51 88.83 1419.69 95.67 1419.69 103.87L1419.69 120.72L1469.29 120.72L1469.29 88.83L1502.51 78.81L1502.51 120.72L1536.18 120.72L1536.18 148.06L1502.51 148.06L1502.51 214.11C1502.51 222.77 1504.33 228.69 1507.06 232.33C1510.24 235.98 1515.25 237.8 1522.07 237.8C1523.89 237.8 1526.17 237.34 1528.9 236.43C1531.63 235.52 1533.9 234.61 1535.72 233.24L1535.72 260.58C1533.45 261.94 1530.26 262.86 1525.26 263.77C1520.25 264.68 1515.7 265.13 1510.7 265.13C1496.59 265.13 1486.13 261.49 1479.3 254.2C1472.48 246.91 1468.84 235.52 1468.84 220.49L1469.29 148.51L1419.69 148.51Z" />
	<g id="Layer">
		<path id="Layer" class="shp1" d="M0 0L155.62 0L155.62 155.8L0 155.8L0 0Z" />
		<path id="Layer" class="shp2" d="M172 0L327.62 0L327.62 155.8L172 155.8L172 0Z" />
		<path id="Layer" class="shp3" d="M0 172.2L155.62 172.2L155.62 328L0 328L0 172.2Z" />
		<path id="Layer" class="shp4" d="M172 172.2L327.62 172.2L327.62 328L172 328L172 172.2Z" />
	</g>
</svg>