<svg version="1.2" xmlns="http://www.w3.org/2000/svg" viewBox="0 0 1549 190" width="1549" height="190"><style></style><path  d="m352.2 70.1c26.3 0 42.7 11.1 42.7 30.7v13.1c0 20.8-14.1 29.9-40.4 29.9h-94.2v45.9h-36v-119.6zm1196.7-69.3v0.1c-57.1 4.7-281.5 32.5-437 188.8h-57.8l6.5-6.4c32.6-31.5 176.6-164.7 488.3-182.6zm-956.2 189h-43l-19.1-26.2h-111.3l19.1-20.4h77.3l-37.2-51.1 22-27zm168.3-119.6c19.3 0 33 6.7 36.5 20.9h-135.4v76.2h135.4c-3.9 15.8-12.1 22.5-35.4 22.5h-102.5c-17.7 0-34.3-7.2-34.3-26.3v-67c0-19.1 16.6-26.3 34.3-26.3zm195.8 60.7h-72.9v36.4h124.9v22.5h-161.6v-79.4h109.6zm319.6 58.9h-57.2l-50.7-37c9.3-7.3 19.3-14.6 28.8-21.2zm-1140.9-119.6c20 0 31.4 9.8 34.9 20.9h-133.5v25.7h103.5c20.9 1.2 33.5 10.1 33.5 26.9v19.1c0 18.6-11 27-33.1 27h-105.6c-20.1 0-31.7-7.6-35-22.5h141.1v-27.3h-104.9c-19.4 0.1-32.6-8.9-32.6-24.6v-18.9c0-18.1 12.8-26.3 35-26.3zm124.8 51.9h87.5c14.2 0 15.8-4.8 15.8-13.4v-4.6c0-8.5-2.1-13-17.5-13h-85.6zm895.9-22.5c-10.3 6.1-21.6 13.2-31.3 19.7l-67-49.1h57.1zm0 0.1v-0.1zm-145.6-8.6h-163.3v-20.8h163.3z"/></svg>